<svg xmlns="http://www.w3.org/2000/svg" width="232.38" height="207.4" viewBox="0 0 232.38 207.4">
  <defs>
    <style>
      .cls-1, .cls-4, .cls-5 {
        fill: #232156;
      }

      .cls-1 {
        stroke: #fbb03c;
        stroke-miterlimit: 10;
        stroke-width: 0.5px;
      }

      .cls-2 {
        fill: #78bae5;
        fill-rule: evenodd;
      }

      .cls-3 {
        fill: #fbf1de;
      }

      .cls-5 {
        font-size: 15.2px;
        font-family: FTYSPEEDYCASUALNCV, FTY SPEEDY CASUAL NCV;
      }
    </style>
  </defs>
  <g id="Layer_2" data-name="Layer 2">
    <g id="Layer_2-2" data-name="Layer 2">
      <g id="Complete-logo">
        <path id="Backgroung-dark-blue" class="cls-1" d="M232.07,90s0-.32,0-6.84c0-14.71-.28-28.88-.06-38,0-.5-6.37-2.32-12-3-5.07-.63-19.63.91-27.23,3.2a4.93,4.93,0,0,1-1.27.34c-.65-.84-1.32-1.66-2-2.47a54.76,54.76,0,0,0-4.52-5,94.06,94.06,0,0,0-7.42-6.84l-.64-.56a60.51,60.51,0,0,0-7.46-5.42,91.14,91.14,0,0,0-49.56-14.76c-46.4-.31-82.75,34.63-89.75,75.63a5.75,5.75,0,0,1-.66.37c-5.46,0-10,2-15,4.2-1,.43-2.08.92-3.35,1.5a52.78,52.78,0,0,0-8.86,5.06C.78,98.5-.37,103.78.63,108.78s-1,13.16,3.51,20.29a12.29,12.29,0,0,1,1.9,3.8c.63,1.9.64,2.48,0,5.87-1.32,7.43.12,12.19,6.54,18,5.23,4.79,13.13,6.32,16,6,9-1,11.05-2.56,15.48-4.47,1.68-.72,1.08-1.5,3,.49a90.67,90.67,0,0,0,69.09,36.79c2.24.2,3.52.21,3.52.21a77.86,77.86,0,0,0,16-1.5c35.82-6.33,64.45-33.86,72.89-69.37a57.09,57.09,0,0,0,2.17-9.81c.68-6,.75-5.32.75-9.12,0-2,3.23-1.41,7.59-2.29,3.8-.76,9.6-.85,12.15-5.34C232,97.12,232.24,96.69,232.07,90Z"/>
        <path id="Top-blue-water" class="cls-2" d="M120,11.93c-49.66,0-89.92,40.68-89.92,90.87S70.36,193.66,120,193.66,209.94,153,209.94,102.8,169.68,11.93,120,11.93Zm78.75,117.53a3.89,3.89,0,0,1-1.54,2.71,7.75,7.75,0,0,1-3.34,1.12c-1.42.28-2.88.94-4.31,1.07-1,.08-3.14-.84-2.16-2.14.69-.92,2.42-1.3,3.49-1.42s1.85-.1,2.77-.21a8.89,8.89,0,0,0,3.24-.46C198.44,129.37,198.76,129.3,198.77,129.46ZM196.36,110c1.7.85,1.66,5.62,1.13,7.19a16.78,16.78,0,0,0-1.11,3.17q-.21,1.67-.45,3.33c-.29,1.94-1,2.67-2.91,2.59-1.11,0-3.17.16-2.19-1.4s-1.19-3.82-.1-6.22c.83-1.84,3-2.67,3.31-4.79C194.19,112.9,194.51,109,196.36,110ZM185.25,52.39c1.73-1.67,5.06,6.83,5.56,7.85.8,1.63,2.29,2.79,2.77,4.6a11.12,11.12,0,0,1,0,3.31c0,.14,0,1.15-.74.41-2.75-2.69-3.82-7.42-4.08-8.11s-.56-1.52-.9-2.25,0-1.5-.45-2-1.59-.42-2.16-1.29A2,2,0,0,1,185.25,52.39ZM64.21,37.3a31.37,31.37,0,0,1,5-4.38c2.62-1.67,5.29-3.26,8-4.85,2.37-1.41,4.92-2.59,7.41-3.78,2-1,4.18-1.74,6.24-2.68A42.9,42.9,0,0,1,97,19.76c.84-.24,2-.67,2.13-.47.31.36-.27,1.77-1,2.52-1.69,1.82-1.13,2.91-1.88,5-.41,1.14-1.27,1-2.22,1.36s-1.24,1.25-1.85,1.89c-1.42,1.52-4.21,1.62-5.68,1.66h0l-.31,0c-2,.34-3.52,1.62-5.4,2.27-2.49.86-5.21,1.06-7.75,1.81A28.82,28.82,0,0,0,67.94,38a24.92,24.92,0,0,1-4.63,1.77C61,40.37,63.76,37.73,64.21,37.3ZM67,51.92c-.89.42-2.4,1.23-2.78-.05s1.42-1.5,1.81-2c.91-1.18,1.68-1.18,3.15-1.16,1,0,1.36.56,2.13-.38.44-.53-.18-1.55.38-2.21s2.76-.88,2.88-.6-.9,2.63-1.5,3.38c-1.23,1.57-1.08,2.68-1.93,4.39-.66,1.31-1,1.67-2.87,2-.72.12-3,.38-3.06-.75,0-.78,3.74-2.3,4.32-2.85C71.73,49.5,68.27,51.28,67,51.92ZM116.33,156c-.75,2.26-1.44,4.62-2.36,6.82a4.81,4.81,0,0,1-3.55,3.06,3.34,3.34,0,0,1-3.42-3.47c0-1.16.45-2.28.38-3.44a15.85,15.85,0,0,1-.22-3.15c.2-1.44,1.47-2.15,2.69-2.63s2.77-.51,3.55-1.56c1.21-1.61-.49-5.35,2.85-1.42C117.54,151.76,116.93,154.2,116.33,156Zm43.78-34.24c-1.49-.52-2.31-7.48-.35-8S161.31,122.19,160.11,121.78ZM174,102.55c-1.12-.36-1.51-2.51-1.76-3.48-.3-1.16-.44-2.81-2-2.7a12.59,12.59,0,0,0-2.5.65c-1,.26-2,.19-2.73,1-1.28,1.4-1.45,3.31-3.21,4.33a2.92,2.92,0,0,0-1.81,2.25c-.27,1.36-1.3,1.88-2.05,2.93-.49.71-1.76,12.19-4.69,9.44-1.18-1.11-1.37-3.43-1.73-4.91-.68-2.75-2.37-4.18-3.91-6.4-1.18-1.71,0-4.25-1.55-5.64s-3.68-1.23-5.37-2a3.51,3.51,0,0,1-2.1-2.08c-.31-.78-.64-1.55-1.55-1.69-1.94-.31-3.87.65-5.86.41-2.4-.29-4.31-1.84-6.72-1.35-2.24.46-4.17-.5-6.07-1.58-.73-.42-5.2-1.92-4.29-.25a11.92,11.92,0,0,1,1.1,3.74c.3,1.73.16,2,1.94,2.34a9.59,9.59,0,0,0,3.38-.08c1-.2,1.63-1,2.6-1.15,3.5-.33,1.06,1.06,1.52,1.59.67.76,2.06,1.39,2.74,2.16,1.22,1.39.24,4.6-1.21,5.53-.8.51-1.91.41-2.42,1.34s-.44,1.88-1.31,2.33-2.14.35-3.12.66a38,38,0,0,1-4.18,1c-2.34.45-4.21,2-6.68,2s-4.37-1-5.07-3.48-.58-4.64-2.21-6.63a20.58,20.58,0,0,1-2-2.56c-.79-1.36-1.17-2.87-2-4.22-1.13-1.77-1.57-3.62-3.41-4.73-1.12-.68-3.43-4.9-3.09-.17.27,3.9,2.23,7.06,4.5,10,.59.76,2,1.91,2.24,2.87s-.17,1.81.13,2.65.69,1.77,1.09,2.63a10.2,10.2,0,0,0,3.91,4.35,5,5,0,0,1,2.14,1.77,5.53,5.53,0,0,0,2,2.76,8.47,8.47,0,0,0,2.59,1.24c1.09.27,1.13-.76,2-1.17s3-2.81,4.28-2.85,0,1.06.32,2.39c.54,2.11-2.08,3.91-2.64,5.72-.85,2.76-1,5.22-3,7.37a40.78,40.78,0,0,1-6,5.55c-.84.63-1.92.82-2.68,1.55a7.19,7.19,0,0,0-2,3.9c-.43,2.52,1,4.63,1.53,7s.17,5.77-2,7.29c-1.42,1-4,1-4.87,2.63s1.16,3.89,1,5.74c-.4,4.19-5.79,6.9-9.22,8.26a9.28,9.28,0,0,1-5.77.7c-2.21-.61-3.91-3-5.56-4.5s-2.91-3.88-4.92-4.82c-1.8-.84-2.38-4.45-3-6.12-.52-1.31-1-2.63-1.51-4a10.32,10.32,0,0,1-1-3.16c0-3,1.15-5.75.42-8.81-.63-2.66-2-5.07-2.74-7.73C61.09,131.65,60.06,129,60,126c0-2.45-.76-3.39-3-4s-2.66-3.43-5.1-4.06c-2.16-.56-4.24-.65-6.23-1.81-2.27-1.33-3.31-3.72-4.24-6.08a54.33,54.33,0,0,1-2.63-6.87,44.43,44.43,0,0,1-.73-8.31c-.13-2.87.92-4.61,2.12-7.07,1.27-2.61,1.34-4.83,3.89-6.64a54.47,54.47,0,0,1,6.19-4.06,11.56,11.56,0,0,0,2.92-1.8,4.2,4.2,0,0,1,2.7-1.42c2.25-.11,4.6,1.07,6.84,1.36a24.17,24.17,0,0,0,4.81.09c1-.11,1.13-.06,1.32,1,.31,1.86-.47,3.44.84,5.12a10.42,10.42,0,0,0,5.43,3.71c1.09.23,4.15.88,4.39-.24s.5-.9,1.81-.4c2,.74,3.42,1.92,5.61,2.08,3.2.22,7.49-.68,9-3.91.5-1.07.94-3-.61-3.3-1.34-.3-2.72.24-4.08,0-1.15-.24-3-.87-3.3-2.24-.18-1,0-2.37.56-2.72s2.7-.37,3.33-.64c6.57-2.86,8,1.13,11.09-1,2.48-1.75-2.06-1.58-2.48-3-.33-1.08,2.57-4.24,0-3.14-.81.36-1.51,2.7-3,2.69-1.8,0-2,.13-2.07-1s-.73-3.3-2.12-1.58a9.67,9.67,0,0,0-1.16,2.29c-.48,1.08-1.39,1.54-2.19,2.33-.6.6-.67,1.74-1.39,2.22a4,4,0,0,1-2.82.38c-1.89-.51-1.82-.74-2.13,1.26-.15.93-.38,2-1.82,2.1s-.94-.14-2.27-2c-.58-.78-.27-2-.13-2.69a4.79,4.79,0,0,0-2.25-5.43c-1.15-.65-1.43,1.77-1.39,2.43.09,1.3,1.86,5.28-.53,5.82-.28.07-2.31-.29-2.31-.61,0-.81,1.41-1,1.65-1.46,1.36-2.3-1.63-3.38-1.8-5.26-.06-.57-.82-1.54-1.44-1.39a6,6,0,0,1-3,.35,3.26,3.26,0,0,0-2.43,1.07,4.79,4.79,0,0,1-3,1.49c-4,.09-3.3,2.42-7,2.29-1.07,0-2.24.24-2.71-.18s-.4-1.09-.42-2.2c0-2,.38-3.53,1.79-4.42,3.77-2.41,5.31-2.12,7.68-2.44,1.64-.22,1.64-.22,1.89-1.55.13-.72,0-2.06.54-2.77,1.24-1.8,4.88-1.92,6.81-2.11a11.69,11.69,0,0,0,3.4-.89c1.09-.46,1.2-.94,1.79-1.86s2.42-.17,2.57-1.09c.31-2,.86-.32,3.89.66,2.68.88,5.24-1.1,7.84-1.6,1.81-.34,3.77.16,5.53-.38.55-.16,1-1.24.85-1.43a5.07,5.07,0,0,0-2.36-.23c-1.28.15-3.91,0-1.76-1.55,1-.72,2.47-1.05,3.11-2.23.17-.3.41-.58.25-.71-.5-.38-4.6.36-5,.57-2.11,1-2.41,2.77-3.55,4.56a3.31,3.31,0,0,1-5.28.33c-.51-.61-.18-2.27-.82-2.79s-1.25,1.18-2.24-.42c-1.21-2,2-3.23,3.16-3.67a33.91,33.91,0,0,1,4.74-1.4c.83-.18,1.66-.36,2.47-.62a16.83,16.83,0,0,0,2-1.16c1.69-.79,3.33.06,5-.26a17.86,17.86,0,0,1,5.18-.64c1.41.16,5,.65,5.63,2.23.94,2.51-5.35,1.83-4.93,2.73.84,1.81,3.69,1,4.76.86a13.57,13.57,0,0,0,6.8-3.25c2-1.62,4.29-.1,6.62-.75a15.88,15.88,0,0,0,3.68-1c1.39-.82-1-2,1.71-2.2A3.4,3.4,0,0,1,130.27,41c.08.7.08,1.8.72,2.26a1,1,0,0,0,1.1,0c.29-.18.15-2.17.06-2.51a5.17,5.17,0,0,1,2.33-5.9,25.51,25.51,0,0,1,3.43-1.61c1.28-.6,2.51-1.29,3.8-1.92,2.49-1.22,1.83.39,3.82.71a14.8,14.8,0,0,0,6-.58c.91-.44,1.5-1.73,2-2.35a1.93,1.93,0,0,1,.41-.4c.36-.25.59.57,1.33.89a42.35,42.35,0,0,1,5.52,2.85c3.29,2,6.56,3.58,9.16,6.49a12.3,12.3,0,0,0,4.85,3.6c1.65.72,3,2.8,4.09,4.17a22.28,22.28,0,0,1,4.5,8.16c1.87,6.81,3.92,6.15,4.8,9.63.16.63.7,2,.15,2.85-.23.34-.29.58-.68.31-2.36-1.59-2.22-2.93-2.62-3.39-.81-.9-1.34-1.37-2.84-.71-1.88.83,1.74.87,1.79,2.1.06,1.69,1,1.56,1.41,2.58a24,24,0,0,0,1.16,3.6c1.15,2.06,3.2,3.44,4.23,5.6a11.37,11.37,0,0,1,.66,5.18c0,1.36.08,3.26-.77,4.43-.64.86-1.55,1.43-1.8,2.54-.31,1.39-.37,2.15-1.87,2.48-2.39.52-2.65,5.8-1.83,7.67.62,1.42,1.68,2.71,2.23,4.13a5.09,5.09,0,0,1,.4,2.14c-.07.8-1.36.82-1.44,1.72a5.68,5.68,0,0,1-1.33,2.51c-.31,0-.63-1.17-1.07-1.51-2.7-2.15-2.87-2.18-3-.61a10.62,10.62,0,0,0,.14,2.4c.24,1.76.41,2.11,1.84,3.13s3.14,2,3.47,4.07c.17,1.06.22,3.25-1.33,3.21a2.94,2.94,0,0,1-2.27-1.8c-.74-1.28-1.72-2.32-2.58-3.52-1.47-2.06-1.66-4.58-1.73-7,0-2.21.17-5.86-1.55-7.57C175.81,99.92,175.1,102.92,174,102.55Zm3.38,15.54c1.75-.33,3.48,1.83,4.13,3.13,1.82,3.63,3.46,1.16,4.28,2.71a7.19,7.19,0,0,1,.92,4c-.26,2.77-1.76,3.85-2.25,3.76s-.62-1.27-1.15-2.09a36.56,36.56,0,0,1-2-4.29c-.87-1.82-2.52-2.65-3.87-4C176.6,120.56,175.53,118.43,177.33,118.09ZM197.77,137c-.26,1.25-.06,3.19-.6,4.31a49.56,49.56,0,0,1-5.65,8.17c-2.07,2.64-3.72,5.56-5.83,8.2-1.11,1.39-2.94,4.65-5,4.8-2.93.21.82-6.21,1.19-7,1.2-2.64,2.25-5.65,4-8s4.53-3.44,6.74-5.15a13.19,13.19,0,0,0,2.81-2.87c.74-1.06.64-2.51,1.38-3.58C197.76,134.58,197.93,136.26,197.77,137Z"/>
        <g id="Banner">
          <path id="Light-banner" class="cls-3" d="M1.12,106.49A42.39,42.39,0,0,1,1.75,112c.12,2.47.3,5.85.49,8.2.52,6.45,1.26,5.7,4.43,10.76a12.2,12.2,0,0,1,1.27,3.8c0,1.36-1,3.94-1.27,5.7-.63,3.8,0,7.43,3.8,12.67,5.61,7.82,16,8.51,19,8.23,4.07-.38,5.36-.37,8.86-1.9,10.13-4.43,6.42-3.81,9.5-4.43,7.6-1.53,29.32-9.95,32.36-10.71,7.32-1.85,8.8-2.61,22.15-7.64,15-5.63,9.09-3.48,39.23-17.16A374,374,0,0,1,194,99.7c16.93-5,21.28-3.07,28.49-3.46,5-.27,8.64.75,8.37,1-.38-4.18,0-4.74,0-8.23,0-5.32.09-5.77,0-11-.4-18.62.35-23.18.34-31.54,0-1.94-5.71-2.44-11.78-2.64a94.61,94.61,0,0,0-16,.78A139,139,0,0,0,180.59,50C165,54.78,153.41,59.61,151,60.63c-15.93,6.66-16.68,8.12-37.2,17.53-5.08,2.33,0-.06-37.21,15.25C61.19,99.74,58,98.05,51,96.78c-4.54-.83-8.87-1.27-16.47-3.17-6.26-1.56-13.93,1.27-17.73,2.54-3.63,1.21-8.23,3.16-15.2,6.33C.3,103.07.68,104.06,1.12,106.49Z"/>
          <g id="Ltr-on-ban">
            <path class="cls-4" d="M126.11,88.74a7.3,7.3,0,0,1,3.58-.16,7.91,7.91,0,0,1,3.17,1.5A11.39,11.39,0,0,1,135.47,93a19,19,0,0,1,1.94,4.18,24.41,24.41,0,0,1,1.17,5.24,14.77,14.77,0,0,1-.18,4.74,8.48,8.48,0,0,1-1.76,3.71,6.82,6.82,0,0,1-3.52,2.19,7,7,0,0,1-4,.07,8.5,8.5,0,0,1-3.32-1.91,13.83,13.83,0,0,1-2.66-3.34,23.94,23.94,0,0,1-1.94-4.23,22.59,22.59,0,0,1-1.11-5.1,14.87,14.87,0,0,1,.24-4.58,8.55,8.55,0,0,1,1.73-3.61,6.83,6.83,0,0,1,3.35-2.17l.36.24A2.76,2.76,0,0,1,126.11,88.74ZM127.32,93a2.77,2.77,0,0,0-1.47,1.41,6.46,6.46,0,0,0-.58,2.39,12.47,12.47,0,0,0,.14,2.89,18.56,18.56,0,0,0,.71,2.94,22.36,22.36,0,0,0,1.15,2.82,10.39,10.39,0,0,0,1.38,2.17,5,5,0,0,0,1.59,1.27,2.62,2.62,0,0,0,1.79.16,2.2,2.2,0,0,0,1.44-1.23,6,6,0,0,0,.52-2.35,13.39,13.39,0,0,0-.25-3.11,25.32,25.32,0,0,0-.93-3.53,14.55,14.55,0,0,0-2.37-4.73A2.92,2.92,0,0,0,127.32,93Z"/>
            <path class="cls-4" d="M206.35,82.44a8.85,8.85,0,0,1,.21-2.29,6.79,6.79,0,0,1,.78-2,6.47,6.47,0,0,0,2.6,2,7.16,7.16,0,0,0,3.09.58,4.8,4.8,0,0,0,2.18-.55,1.58,1.58,0,0,0,.71-1.6,2.32,2.32,0,0,0-1-1.66,9.43,9.43,0,0,0-2.13-1.19c-.82-.34-1.63-.64-2.44-.9a9.72,9.72,0,0,1-1.9-.79A8,8,0,0,1,206,71.93a6,6,0,0,1-1.17-3.15,8.92,8.92,0,0,1,.36-3.53,8.22,8.22,0,0,1,1.58-2.91,9.2,9.2,0,0,1,2.63-2.16,12.73,12.73,0,0,1,3.51-1.29,12,12,0,0,1,2.06-.22,10.33,10.33,0,0,1,2.24.18,7.51,7.51,0,0,1,2,.7,2.68,2.68,0,0,1,1.26,1.36,5.13,5.13,0,0,1,.32,2.88,10.9,10.9,0,0,1-.78,2.79,1.62,1.62,0,0,1-.78.53,9.87,9.87,0,0,1-1.33.44,13.06,13.06,0,0,1-1.46.3,7.06,7.06,0,0,1-1.2.09,6.8,6.8,0,0,0,.48-1.6,12.92,12.92,0,0,0,.24-1.73,1.08,1.08,0,0,0-.68-1.23,2.51,2.51,0,0,0-1.69,0,4.14,4.14,0,0,0-1.58.8,4.87,4.87,0,0,0-1,1.24,4.52,4.52,0,0,0-.55,1.44,4,4,0,0,0,0,1.51,3.5,3.5,0,0,0,1.25,2,8.07,8.07,0,0,0,2.56,1.42c1,.39,2,.77,2.88,1.15a12.51,12.51,0,0,1,2.33,1.29,6,6,0,0,1,1.63,1.7,5,5,0,0,1,.71,2.34,4.94,4.94,0,0,1-.57,2.9,5.33,5.33,0,0,1-1.92,1.91,9.53,9.53,0,0,1-2.8,1.06,17.9,17.9,0,0,1-3.14.41,14.3,14.3,0,0,1-4.38-.39A4.12,4.12,0,0,1,206.35,82.44Z"/>
            <path class="cls-4" d="M68.74,129.08c1.3,1.48,2.69,3,4.16,4.49a48.47,48.47,0,0,0,4.36,4,4.82,4.82,0,0,1-.6.59,8.59,8.59,0,0,1-.89.67,9.54,9.54,0,0,1-1.11.63,6.19,6.19,0,0,1-1.32.43,6.77,6.77,0,0,1-1.92-1.07,26.77,26.77,0,0,1-2.31-2c-.81-.8-1.65-1.67-2.49-2.63s-1.68-1.93-2.5-2.94c.3,1.56.69,3.11,1.14,4.64s1.06,5.59,1,4.9c-.27.28-.15.28-.57.47a6.73,6.73,0,0,1-1.3.4,7.55,7.55,0,0,1-3,.08c-.69-1.94-.78-4.16-1.37-6.38s-1.11-4.41-1.58-6.58-.89-4.24-1.27-6.2-.69-3.67-1-5.13c-.22-.36-.46-.77-.73-1.24a11.41,11.41,0,0,1-.61-1.19A9,9,0,0,1,57,113.47a14.83,14.83,0,0,1,3.57-1.11,15.12,15.12,0,0,1,4.07-.27,8.4,8.4,0,0,1,3.47,1,8.1,8.1,0,0,1,2.7,2.5,12.34,12.34,0,0,1,1.75,4.11,8.08,8.08,0,0,1-.36,5.5A8.91,8.91,0,0,1,68.74,129.08ZM63,126.46c.16,0,.31,0,.45,0l.43-.06a3.62,3.62,0,0,0,1.88-1A6.32,6.32,0,0,0,67,123.6a7,7,0,0,0,.67-2,4.35,4.35,0,0,0,0-1.77A3.7,3.7,0,0,0,66,117.36a5.64,5.64,0,0,0-4-.24,3.28,3.28,0,0,0-.86.3c.22,1.09.4,2.07.56,2.92s.31,1.62.44,2.32.26,1.36.39,2S62.84,125.86,63,126.46Z"/>
            <path class="cls-4" d="M202.69,60.14a2.85,2.85,0,0,1-1.2,0,3.51,3.51,0,0,1-1.12-.42,2.55,2.55,0,0,1-.82-.78,2.33,2.33,0,0,1-.35-1.17,2.77,2.77,0,0,1,.92-2.26,3.77,3.77,0,0,1,2.44-1,3.17,3.17,0,0,1,2.37.75,3,3,0,0,1,1,2.18,5.79,5.79,0,0,1-.16,1.36,8.77,8.77,0,0,1-.57,1.68,6.93,6.93,0,0,1-1.08,1.66,5.72,5.72,0,0,1-1.65,1.32,1.3,1.3,0,0,1-1-.28,5.66,5.66,0,0,0,.49-.59,5.86,5.86,0,0,0,.47-.82,4.42,4.42,0,0,0,.33-.87A1.38,1.38,0,0,0,202.69,60.14Z"/>
            <path class="cls-4" d="M52.21,116.28c-2.36-6.29-5-10.78-9.73-14.12A19.89,19.89,0,0,0,35.4,98.7a31.26,31.26,0,0,0-13.34-.14,29.25,29.25,0,0,0-11.91,5.6A15.36,15.36,0,0,0,5.52,114c-.22,2.67.81,6.77,2.89,8a6.39,6.39,0,0,0,4.58.59,4,4,0,0,0,2.3-1.45c.63-1-.66-1.35-1.45-2.25a6.27,6.27,0,0,1-1.65-3.07c-.41-1.64.31-3.08,1.48-4.73a14.19,14.19,0,0,1,3.56-3.51c1.67-1.17,6.33-4.43,12.31-4,6.58.51,10.64,5.2,12.48,7.33a27.37,27.37,0,0,1,6.58,19.27c-.22,2.67-1.19,9-4.85,12.55a27.37,27.37,0,0,1-6.17,3.79l-2.36.72-3.48-16.26a7,7,0,0,1,5.24,5c1.23-1.27,4.3-4.43,5.52-5.43,1.42-1.15-3.3-4.52-6.36-6.28-4-2.31-5.84-.4-6.46-2.86-.41-1.64-1.24-4.47-2.26-8.57a11.33,11.33,0,0,1-.35-3.62c.43-1.85.53-1.87-1.14-1.45-2.51.63-1.46.19-4.8,1-2.5.63-2.49.53-1.25,2,1.65,1.89,2.57,9.6,3.59,12.83.61,2.46-4.46,2.45-6.77,7.39a15.33,15.33,0,0,0-.94,11.25c2.17,8.83,8.27,10.79,9.39,11.27,6.22,2.68,13,1.1,18.15-1.93a22.32,22.32,0,0,0,10.06-13,30.58,30.58,0,0,0,1.51-11.71A34.19,34.19,0,0,0,52.21,116.28Zm-29.72,26a8.75,8.75,0,0,1,2.89-9.66L28.67,148A8.74,8.74,0,0,1,22.49,142.27Z"/>
            <path class="cls-4" d="M101.27,108.37c-3-1.53-3.47-1.42-5.57-1.51-.55,0,.48-.89,1.09-1.87a7.5,7.5,0,0,0,.29-7.12,7.06,7.06,0,0,0-5.59-3.68c-1.54-.11-2.36.48-4.8,1.57a55,55,0,0,1-7.12,2.61,11.18,11.18,0,0,1,2.51,3.81A47.35,47.35,0,0,1,84,107.7l1,4.18c.13.5.13.5.25,1l.2.81a6.73,6.73,0,0,0-1.28,1.06,10.49,10.49,0,0,0-3,8.78,11.37,11.37,0,0,0,7.38,8.73c6.15,2.15,11.23-2.56,12.54-3.77s4.8-4.44,4.82-9.73C106,115.49,104.6,110.09,101.27,108.37Zm-.37,10.94a9.12,9.12,0,0,1-2.65,6,9.71,9.71,0,0,1-4.53,2.6c-1.52.47-2.67.81-4.07.34a6.4,6.4,0,0,1-3.49-3.6,6.8,6.8,0,0,1-.41-3.71c.15-1.08.6-2.41,1-2.38L88,123.73h0l.26,1c.15.62.84.32,2.22.61,2.38.5,3.55,1.39,3.34.91a32.88,32.88,0,0,1-2.3-7.1l-.64-2.58c-.09-.34,1.47.46,1.73.71,1.57,1.52,1.55,4.8,2.06,2.93a4.83,4.83,0,0,1,3-2.88c.56-.19,0-1-.88-2a9.32,9.32,0,0,0-6.94-2.85l-.25-1-.26-1-1.17-4.64-.12-.52-.61-2.4a17,17,0,0,0-.63-2,1.07,1.07,0,0,1-.06-.8c.13-.33.44-.5,2.34-1a6.26,6.26,0,0,1,2-.42,3.58,3.58,0,0,1,2.26,2.77,5.1,5.1,0,0,1-.71,3.41c-.72,1.48-1.4,1.65-1.81,3.1-.16.58-.46,1.66,0,2.17s1.59-.16,3.09-.12c2.48.06,4.38,2.25,4.84,2.76A9.32,9.32,0,0,1,100.9,119.31Z"/>
            <polygon class="cls-4" points="183.31 65.3 171.69 69.3 172.55 72.51 174.62 83.57 176.04 94.15 188.89 89.17 187.44 84.75 184.55 86.03 179.92 87.97 179.06 83.52 186.02 80.89 185.13 75.88 178.76 78.47 177.91 72.43 184.76 69.72 183.31 65.3"/>
            <path class="cls-4" d="M115.7,109.06q2,1.74,4.26,3.49a43.35,43.35,0,0,0,4.37,3,4.19,4.19,0,0,1-.49.58,6.25,6.25,0,0,1-.74.69,7,7,0,0,1-.95.68,4.83,4.83,0,0,1-1.15.53,5.89,5.89,0,0,1-1.86-.72,21.86,21.86,0,0,1-2.3-1.51c-.83-.6-1.68-1.28-2.54-2s-1.73-1.52-2.58-2.31c.44,1.34.94,2.67,1.51,4s2.11,5.27,2,4.66a3.49,3.49,0,0,1-1.13.59,7.07,7.07,0,0,1-1.13.6c-.84.27-1.6.77-2.29.65-.83-1.63-1.54-4.48-2.3-6.37s-1.47-3.77-2.12-5.63-1.24-3.64-1.79-5.33-1-3.16-1.39-4.42l-.79-1a8.29,8.29,0,0,1-.67-1,8.3,8.3,0,0,1,1.86-1.61,13.86,13.86,0,0,1,3.14-1.39,14,14,0,0,1,3.67-.7,8,8,0,0,1,3.26.51,7.2,7.2,0,0,1,2.72,1.9,10.54,10.54,0,0,1,2,3.43,7,7,0,0,1,.23,4.9A8,8,0,0,1,115.7,109.06Zm-5.5-1.66.4-.07a4,4,0,0,0,.39-.11,3.41,3.41,0,0,0,1.61-1.09,5.9,5.9,0,0,0,1-1.71,6.27,6.27,0,0,0,.4-1.87,3.74,3.74,0,0,0-.19-1.57A3.29,3.29,0,0,0,112,99a5.34,5.34,0,0,0-3.63.24,3.64,3.64,0,0,0-.75.36q.47,1.41.81,2.52c.23.73.44,1.4.64,2s.37,1.17.55,1.7S110,106.89,110.2,107.4Z"/>
            <path class="cls-4" d="M197.93,76.18q1.65,2,3.52,4a41.49,41.49,0,0,0,3.67,3.55,5.69,5.69,0,0,1-.5.52,8,8,0,0,1-.74.58,6.91,6.91,0,0,1-.93.55,4.47,4.47,0,0,1-1.1.38,5.5,5.5,0,0,1-1.62-1A20,20,0,0,1,198.29,83c-.69-.7-1.4-1.48-2.11-2.33s-1.42-1.72-2.11-2.61c.26,1.38.59,2.75,1,4.11s.91,4.95.86,4.33c-.23.25-.13.25-.48.41a5.36,5.36,0,0,1-1.09.36,6.19,6.19,0,0,1-2.56.06c-.58-1.72-.67-3.69-1.17-5.65s-1-3.91-1.36-5.84-.77-3.75-1.1-5.48-.6-3.25-.82-4.55c-.19-.31-.39-.68-.62-1.1a8.31,8.31,0,0,1-.52-1A7.41,7.41,0,0,1,188,62.33a13.19,13.19,0,0,1,6.4-1.19,6.75,6.75,0,0,1,5.19,3.14,11.27,11.27,0,0,1,1.49,3.65,7.49,7.49,0,0,1-.28,4.86A7.59,7.59,0,0,1,197.93,76.18Zm-4.84-2.34.37,0,.37,0a3.11,3.11,0,0,0,1.57-.87,5.7,5.7,0,0,0,1.08-1.57,6.5,6.5,0,0,0,.55-1.79A4.3,4.3,0,0,0,197,68a3.38,3.38,0,0,0-1.44-2.17,4.58,4.58,0,0,0-3.32-.23,3.51,3.51,0,0,0-.72.26c.19,1,.35,1.84.49,2.59s.26,1.44.38,2.06.22,1.2.33,1.75S193,73.31,193.09,73.84Z"/>
            <path class="cls-4" d="M152.5,76.85,157.05,75l11,10.58h0l-3.62-13.11L169,70.64l5.37,24.19-2.84,1.22-11.16-12.7,4.34,15.73-4.55,1.84L153.68,79h0a4.22,4.22,0,0,0-.54-1.14"/>
            <path class="cls-4" d="M135.37,84.07l4.56-1.84L151.65,93.4h0l-4.26-14.14,4-1.82,6.57,24.67-2.85,1.21-11.8-12.75,4.34,15.73-4.56,1.84-6.51-21.9h0A4.63,4.63,0,0,0,136,85.1"/>
            <text class="cls-5" transform="translate(77.58 135.8) rotate(0.1)">.</text>
          </g>
        </g>
        <g>
          <path class="cls-4" d="M97.46,7.93l0-.25c.42-.16.4-.23.24-.51s-.29-.47-.45-.72l-1.33.28-.1.74c0,.46.13.48.68.41l0,.25-1.69.37,0-.26c.42-.14.51-.23.63-.85l.66-3.85.32-.13c.69,1.1,1.42,2.22,2.11,3.27.39.58.46.61.91.57l.06.26Zm-1.3-3.14c-.09.53-.19,1-.25,1.57L97,6.12Z"/>
          <path class="cls-4" d="M106.15,5.25A12.73,12.73,0,0,1,106,6.52L102.56,7l0-.26c.6-.13.65-.18.57-.77l-.36-2.64c-.08-.58-.15-.63-.68-.6l0-.26,2.16-.29,0,.26c-.54.12-.6.18-.52.76l.36,2.69c.05.38.09.56.48.51,0,0,.33,0,.36,0a.72.72,0,0,0,.63-.36,3.23,3.23,0,0,0,.34-.78Z"/>
          <path class="cls-4" d="M113.24,4.67c0,.31-.18,1.06-.23,1.25l-3.47.23V5.89c.61-.08.66-.13.62-.72L110,2.51c0-.59-.11-.64-.64-.65l0-.26,2.19-.14v.26c-.54.08-.61.14-.57.72l.18,2.72c0,.38.05.55.43.54l.37,0a.73.73,0,0,0,.65-.32,3.22,3.22,0,0,0,.39-.75Z"/>
          <path class="cls-4" d="M118.52,4.45l-1.76,0,0-.55,1.77,0Z"/>
          <path class="cls-4" d="M124.86,1.38a2.28,2.28,0,0,1,2.2,2.47,2.4,2.4,0,0,1-4.8-.25A2.34,2.34,0,0,1,124.86,1.38Zm-.12.3c-.72-.05-1.29.62-1.36,1.85s.32,2.23,1.27,2.29c.66,0,1.22-.57,1.3-1.85S125.55,1.73,124.74,1.68Z"/>
          <path class="cls-4" d="M136,3c-.43,0-.57.07-.64.38s-.12.5-.21,1.1l-.41,2.76-.38-.06L131.93,3.3l-.23,1.56c-.09.61-.12.88-.13,1.08s.11.49.62.6l0,.25-1.72-.25,0-.26c.4,0,.59,0,.68-.37s.11-.49.2-1.1l.25-1.64a.82.82,0,0,0-.07-.58c-.1-.2-.26-.24-.55-.31L131,2l1.35.2,2.19,3.46.18-1.24c.09-.61.12-.84.14-1.1s-.07-.46-.64-.58l0-.26,1.71.26Z"/>
          <path class="cls-4" d="M142.69,7.62c-.08.17-.45.91-.55,1.09L138.6,7.9l.05-.24c.64.08.69,0,.82-.52l.59-2.61c.14-.58.06-.64-.39-.78l.06-.26L142,4l1.05.23c0,.12-.12.69-.19,1.12l-.27,0a1.77,1.77,0,0,0-.15-.7c-.09-.16-.17-.23-.52-.31l-.44-.1c-.26-.06-.29,0-.34.18l-.33,1.43.67.15c.38.09.47,0,.69-.46l.26.06L142,7.09,141.77,7c0-.53,0-.62-.43-.71l-.66-.15-.27,1.17c-.11.47-.12.62.3.72l.48.11c.38.09.5.06.69-.09a2.61,2.61,0,0,0,.57-.58Z"/>
        </g>
        <g>
          <path class="cls-4" d="M84.32,193.16a2.28,2.28,0,0,1,1.3,3,2.4,2.4,0,1,1-1.3-3Zm-.21.24c-.66-.27-1.41.18-1.88,1.33s-.4,2.21.47,2.57c.62.25,1.34-.15,1.83-1.33S84.86,193.71,84.11,193.4Z"/>
          <path class="cls-4" d="M93.2,201.2l-.2-.07c-.84-.3-1-.56-1.14-.9a12.78,12.78,0,0,1-.33-1.39c0-.21-.12-.28-.34-.34l-.13-.05-.3,1c-.17.55-.11.61.37.83l-.08.25-2-.64.07-.24c.53.1.6.07.77-.48l.79-2.56c.16-.52.12-.62-.37-.81l.08-.25,1.93.6a2.08,2.08,0,0,1,1.14.63,1.05,1.05,0,0,1,.17,1,1.19,1.19,0,0,1-1.17.83c0,.23.17.74.27,1.11a4.45,4.45,0,0,0,.3.85.81.81,0,0,0,.33.43Zm-1.87-3a1,1,0,0,0,.7,0,1,1,0,0,0,.56-.69c.22-.71-.11-1.08-.49-1.2-.18-.06-.27-.06-.32,0s-.1.1-.14.24l-.49,1.59Z"/>
          <path class="cls-4" d="M102.24,201.3c-.4,0-.46,0-.56.47l-.11.52a5.09,5.09,0,0,0-.1.68,10.12,10.12,0,0,1-1.7-.13,2.34,2.34,0,0,1-2-2.87c.33-1.54,1.75-2.05,3.21-1.74a11.51,11.51,0,0,1,1.35.45c0,.3-.11.84-.14,1.22h-.28a1.32,1.32,0,0,0-.62-1.19,2.3,2.3,0,0,0-.57-.21c-.83-.18-1.6.41-1.85,1.59s0,2.25,1.09,2.49a.9.9,0,0,0,.46,0c.11,0,.19-.14.24-.35l.13-.61c.1-.48,0-.54-.55-.73l.06-.26,2,.43Z"/>
          <path class="cls-4" d="M108.6,204.18l0-.26c.45,0,.46-.08.4-.39s-.12-.55-.19-.84l-1.35-.16c-.11.21-.24.46-.33.66-.2.42,0,.5.5.61l0,.26-1.71-.21,0-.25c.44,0,.56-.06.87-.61l1.87-3.41.35,0c.29,1.27.62,2.56.93,3.77.18.68.23.73.68.85l0,.25Zm-.21-3.39c-.26.47-.51.91-.74,1.4l1.1.13Z"/>
          <path class="cls-4" d="M119.8,200.6c-.43,0-.57.13-.6.45s-.06.51-.08,1.12L119,205h-.39l-2.81-3.6,0,1.59c0,.61,0,.88,0,1.08s.16.48.68.52v.26l-1.74-.06v-.25c.4,0,.58-.13.63-.45a8.7,8.7,0,0,0,.08-1.12l0-1.66a.86.86,0,0,0-.12-.57c-.12-.18-.29-.2-.58-.24v-.26l1.37,0,2.57,3.19,0-1.26c0-.61,0-.84,0-1.1s-.12-.45-.7-.5v-.26l1.73.05Z"/>
          <path class="cls-4" d="M124,204.81v-.26c.52-.07.59-.12.56-.71l-.12-2.66c0-.59-.1-.64-.63-.66v-.25l2.16-.1v.26c-.52.07-.59.12-.56.71l.12,2.66c0,.58.09.62.63.65v.26Z"/>
          <path class="cls-4" d="M134.75,202.65a11,11,0,0,1-.25,1.16,5.44,5.44,0,0,1-1.26.34,2.36,2.36,0,0,1-2.92-2c-.18-1.44.8-2.54,2.47-2.75a7.62,7.62,0,0,1,1.33,0c.07.32.19.83.27,1.13l-.27.08a1.21,1.21,0,0,0-.84-.86,2.07,2.07,0,0,0-.61,0c-1,.12-1.41,1-1.28,2.12.16,1.27.91,2.05,1.87,1.93.58-.07.93-.42,1.21-1.23Z"/>
          <path class="cls-4" d="M146.47,198.83c.75-.06,1.34.15,1.51.79a1.28,1.28,0,0,1-.37,1.2,2.89,2.89,0,0,1-1.21.63l-1.89.51-.07-.25c.51-.2.55-.25.4-.81l-.69-2.58c-.16-.57-.26-.6-.75-.51l-.07-.25,2.06-.55a2,2,0,0,1,1.17-.06.91.91,0,0,1,.62.64A1.14,1.14,0,0,1,146.47,198.83Zm-.88.15c.64-.18.81-.52.67-1a.75.75,0,0,0-1-.6.64.64,0,0,0-.31.14c-.06.06,0,.12,0,.26l.35,1.29Zm.16,1.66c.14.48.4.57.76.47A.87.87,0,0,0,147,200c-.18-.66-.59-.88-1.35-.68l-.23.07Z"/>
          <path class="cls-4" d="M155.77,197.17c0,.18.12,1,.13,1.22l-3.42,1.23-.09-.24c.58-.27.61-.32.41-.87l-.91-2.52c-.2-.56-.29-.57-.76-.45l-.08-.24,2.14-.78,1-.38.45,1.05-.25.12a1.87,1.87,0,0,0-.5-.51c-.17-.09-.27-.1-.6,0l-.43.15c-.25.09-.27.11-.19.34l.5,1.38.64-.24c.37-.13.4-.25.33-.76l.26-.09.53,1.47-.26.09c-.28-.45-.36-.51-.74-.37l-.64.23.41,1.14c.16.45.22.58.64.44l.46-.17c.37-.13.45-.21.54-.44a3.63,3.63,0,0,0,.16-.81Z"/>
          <path class="cls-4" d="M163.17,194c0,.19.2,1,.22,1.21l-3.3,1.5-.11-.23c.56-.32.58-.37.34-.9l-1.11-2.43c-.25-.54-.34-.55-.79-.39l-.11-.23,2.07-.95c.67-.3.89-.41,1-.46l.54,1-.24.14a1.77,1.77,0,0,0-.54-.47c-.17-.07-.27-.07-.6.08l-.41.18c-.24.12-.26.14-.16.36l.6,1.33.63-.29c.35-.16.37-.28.26-.78l.25-.11.65,1.42-.25.11c-.32-.43-.4-.48-.77-.31l-.62.28.5,1.09c.2.44.27.57.67.4l.45-.21c.36-.16.43-.25.5-.48a3.22,3.22,0,0,0,.09-.82Z"/>
          <path class="cls-4" d="M171.35,191l-.18.1c-.8.4-1.12.36-1.45.21a12.68,12.68,0,0,1-1.22-.73.41.41,0,0,0-.49,0l-.13.06.5.89c.28.5.37.51.85.31l.13.22-1.87,1.05-.12-.23c.43-.31.46-.39.18-.88l-1.31-2.34c-.27-.48-.36-.51-.84-.29l-.13-.23,1.77-1a2.1,2.1,0,0,1,1.24-.39,1.09,1.09,0,0,1,.86.58,1.21,1.21,0,0,1-.21,1.42,10.73,10.73,0,0,0,1,.57,6,6,0,0,0,.82.38.85.85,0,0,0,.54.05Zm-3.44-.69a1.06,1.06,0,0,0,.51-.49,1,1,0,0,0-.12-.88c-.36-.65-.86-.67-1.2-.48-.17.1-.23.16-.25.22s0,.14.08.26l.81,1.46Z"/>
        </g>
      </g>
    </g>
  </g>
</svg>
